<?xml version="1.0" encoding="utf-8"?>
<!-- Generator: Adobe Illustrator 26.0.3, SVG Export Plug-In . SVG Version: 6.00 Build 0)  -->
<svg version="1.1" id="Layer_1" xmlns="http://www.w3.org/2000/svg" xmlns:xlink="http://www.w3.org/1999/xlink" x="0px" y="0px"
	 viewBox="0 0 253 253" style="enable-background:new 0 0 253 253;" xml:space="preserve">
<style type="text/css">
	.st0{opacity:0.3;}
	.st1{fill:none;stroke:#000000;stroke-width:20;stroke-miterlimit:10;}
</style>
<g>
	<g>
		<path d="M126.5,20C185.22,20,233,67.78,233,126.5S185.22,233,126.5,233S20,185.22,20,126.5S67.78,20,126.5,20 M126.5,0
			C56.64,0,0,56.64,0,126.5S56.64,253,126.5,253S253,196.36,253,126.5S196.36,0,126.5,0L126.5,0z"/>
	</g>
	<path class="st0" d="M126,253c69.86,0,126.5-56.64,126.5-126.5S195.86,0,126,0V253z"/>
	<g>
		<path d="M126.5,61c36.12,0,65.5,29.38,65.5,65.5S162.62,192,126.5,192S61,162.62,61,126.5S90.38,61,126.5,61 M126.5,41
			C79.28,41,41,79.28,41,126.5S79.28,212,126.5,212s85.5-38.28,85.5-85.5S173.72,41,126.5,41L126.5,41z"/>
	</g>
	<g>
		<path d="M126.5,102c13.51,0,24.5,10.99,24.5,24.5S140.01,151,126.5,151S102,140.01,102,126.5S112.99,102,126.5,102 M126.5,82
			C101.92,82,82,101.92,82,126.5s19.92,44.5,44.5,44.5s44.5-19.92,44.5-44.5S151.08,82,126.5,82L126.5,82z"/>
	</g>
	<g>
		<line class="st1" x1="126" y1="0" x2="126" y2="240"/>
	</g>
</g>
</svg>
