<?xml version="1.0" encoding="utf-8"?>
<!-- Generator: Adobe Illustrator 20.1.0, SVG Export Plug-In . SVG Version: 6.00 Build 0)  -->
<svg version="1.1" id="Layer_1" xmlns="http://www.w3.org/2000/svg" xmlns:xlink="http://www.w3.org/1999/xlink" x="0px" y="0px"
	 viewBox="0 0 68.2 66.5" style="enable-background:new 0 0 68.2 66.5;" xml:space="preserve">
<style type="text/css">
	.st0{fill:#FFFFFF;}
</style>
<g>
	<g id="Znxkvv.tif">
		<g>
			<path class="st0" d="M51.8,66.5c-11.8,0-23.6,0-35.4,0C4.5,62.9,0.3,54.4,0.9,42.5C1.2,35,0.8,27.5,1,19.9
				C1.3,7.7,8.5,0.5,20.7,0.2C28.3,0,35.8,0.4,43.3,0c11.8-0.5,20.4,3.6,24,15.5c0,11.8,0,23.6,0,35.4C65,59,59.8,64.2,51.8,66.5z
				 M7.4,32.5c-0.1,0-0.1,0-0.2,0c0,3.7,0,7.4,0,11c0,1.3,0.1,2.6,0.1,3.9c0.5,8,4.5,12.3,12.4,12.5c9.6,0.2,19.2,0.2,28.7,0
				c7.6-0.2,12-4.5,12.2-12.1c0.3-9.8,0.3-19.5,0-29.3C60.6,11.3,56.2,6.9,49,6.7c-9.9-0.3-19.9-0.3-29.8,0
				C12,6.9,7.8,11.4,7.5,18.7C7.2,23.3,7.4,27.9,7.4,32.5z"/>
			<path class="st0" d="M51.8,66.5C59.8,64.2,65,59,67.3,51c0,5.2,0,10.3,0,15.5C62.2,66.5,57,66.5,51.8,66.5z"/>
			<path class="st0" d="M33.8,51.1c-10-0.1-17.6-8-17.5-18.2c0.1-10,8.1-17.5,18.3-17.3c9.7,0.2,17.2,8,17.2,17.9
				C51.8,43.5,44,51.2,33.8,51.1z M34.2,44.8c6.6-0.1,11.5-5,11.4-11.6c-0.1-6.6-5-11.5-11.6-11.4c-6.6,0.1-11.5,5-11.4,11.6
				C22.6,40,27.6,44.9,34.2,44.8z"/>
		</g>
	</g>
	<circle class="st0" cx="51.8" cy="15.7" r="3.7"/>
</g>
</svg>
