<svg xmlns="http://www.w3.org/2000/svg" viewBox="0 0 100 100"><path d="M42.8 37.1c1 0 2.1 0 3.1.3s1.8.5 2.4 1c.8.5 1.3 1 1.6 1.8s.5 1.8.5 2.9c0 1.3-.3 2.4-.8 3.1-.5.8-1.3 1.6-2.4 2.1 1.6.5 2.6 1 3.4 2.4.8 1 1 2.4 1 3.9 0 1.3-.3 2.4-.8 3.1-.5.8-1 1.6-1.8 2.1s-1.8 1-2.6 1.3c-1 .3-2.1.5-3.1.5H31.5V37.1h11.3zm-.5 10c1 0 1.8-.3 2.4-.8.5-.5.8-1.3.8-2.1 0-.5 0-1-.3-1.3-.3-.5-.5-.8-.8-1-.3-.3-.8-.3-1-.5h-6.5v5.8h5.4v-.1zm.2 10.2c.5 0 1 0 1.6-.3.5 0 .8-.3 1.3-.5.3-.3.5-.5.8-1s.3-1 .3-1.6c0-1.3-.3-2.1-1-2.6-.8-.5-1.6-.8-2.9-.8h-5.8v6.6h5.8l-.1.2zm16-.2c.8.8 1.8 1 3.1 1 1 0 1.8-.3 2.6-.8s1-1 1.3-1.6h4.2c-.8 2.1-1.8 3.7-3.1 4.5-1.3.8-3.1 1.3-5 1.3-1.3 0-2.6-.3-3.7-.8-1-.5-2.1-1-2.9-1.8-.8-.8-1.3-1.8-1.8-2.9-.5-1-.5-2.4-.5-3.7s.3-2.6.5-3.7c.5-1 1-2.1 1.8-2.9.8-.5 1.6-1.3 2.6-1.6 1-.5 2.4-.8 3.7-.8 1.6 0 2.9.3 3.9.8s2.1 1.3 2.6 2.4c.8 1 1.3 2.1 1.6 3.4.3 1.3.5 2.6.3 3.9H57.2c.3 1.4.5 2.8 1.3 3.3zm5.5-9.2c-.5-.5-1.6-1-2.6-1-.8 0-1.3 0-1.8.3s-.8.5-1.3 1-.5.8-.5 1.3-.3.8-.3 1h7.9c-.6-1-.8-1.8-1.4-2.6zM56.2 38.7h10.5v2.6H56.2z" fill="none" stroke="#FFF" stroke-linecap="round" stroke-linejoin="round" stroke-miterlimit="10"/><path fill="none" stroke="#FFF" stroke-width="2" stroke-linecap="round" stroke-linejoin="round" stroke-miterlimit="10" d="M72.7 77.6H27.3c-2.9 0-5.2-2.4-5.2-5.2V27.2c0-2.9 2.4-5.2 5.2-5.2h45.4c2.9 0 5.2 2.4 5.2 5.2v45.1c.1 2.9-2.3 5.3-5.2 5.3z"/></svg>