<?xml version="1.0" encoding="utf-8"?>
<!-- Generator: Adobe Illustrator 19.2.1, SVG Export Plug-In . SVG Version: 6.00 Build 0)  -->
<svg version="1.1" id="Layer_1" xmlns="http://www.w3.org/2000/svg" xmlns:xlink="http://www.w3.org/1999/xlink" x="0px" y="0px"
	 viewBox="0 0 35 35" style="enable-background:new 0 0 35 35;" xml:space="preserve">
<style type="text/css">
	.st0{fill:#AAAABF;}
</style>
<path class="st0" d="M17.5,35C7.9,35,0,27.1,0,17.5S7.9,0,17.5,0C27.2,0,35,7.9,35,17.5S27.2,35,17.5,35L17.5,35z M32.3,19.9
	c-0.5-0.2-4.6-1.4-9.3-0.6c2,5.4,2.8,9.7,2.9,10.7C29.2,27.6,31.6,24.1,32.3,19.9L32.3,19.9z M23.4,31.3c-0.2-1.3-1.1-5.9-3.2-11.3
	h-0.1c-8.4,2.9-11.5,8.8-11.7,9.3c2.5,2,5.7,3.2,9.2,3.2C19.6,32.5,21.6,32,23.4,31.3L23.4,31.3z M6.4,27.5
	c0.3-0.6,4.4-7.4,12.2-9.9c0.2-0.1,0.4-0.1,0.6-0.2c-0.4-0.8-0.8-1.7-1.2-2.5C10.5,17.1,3.3,17,2.6,17c0,0.2,0,0.3,0,0.5
	C2.6,21.4,4,24.9,6.4,27.5L6.4,27.5z M2.9,14.5c0.7,0,6.8,0,13.8-1.8c-2.5-4.4-5.2-8.1-5.5-8.6C7,6,3.8,9.8,2.9,14.5L2.9,14.5z
	 M14,3c0.4,0.6,3.1,4.3,5.6,8.8c5.3-2,7.6-5,7.8-5.4c-2.6-2.3-6.1-3.8-9.9-3.8C16.3,2.6,15.1,2.7,14,3L14,3z M29.1,8.1
	c-0.3,0.4-2.8,3.6-8.4,5.9c0.3,0.7,0.7,1.4,1,2.2c0.1,0.3,0.2,0.5,0.3,0.8c5-0.6,9.9,0.4,10.4,0.5C32.5,13.9,31.2,10.6,29.1,8.1
	L29.1,8.1z"/>
</svg>
