<?xml version="1.0" encoding="utf-8"?>
<!-- Generator: Adobe Illustrator 20.1.0, SVG Export Plug-In . SVG Version: 6.00 Build 0)  -->
<svg version="1.1" id="Layer_1" xmlns="http://www.w3.org/2000/svg" xmlns:xlink="http://www.w3.org/1999/xlink" x="0px" y="0px"
	 viewBox="0 0 286.6 286.2" style="enable-background:new 0 0 286.6 286.2;" xml:space="preserve">
<style type="text/css">
	.st0{fill:#FFFFFF;}
</style>
<path class="st0" d="M143.3,286.2C64.3,286.2,0,222,0,143.1C0,64.2,64.3,0,143.3,0c79,0,143.3,64.2,143.3,143.1
	C286.6,222,222.3,286.2,143.3,286.2L143.3,286.2z M264.1,162.7c-4.2-1.3-37.9-11.4-76.2-5.2c16,43.9,22.5,79.7,23.8,87.1
	C239.1,226.1,258.7,196.7,264.1,162.7L264.1,162.7z M191.1,255.8c-1.8-10.7-8.9-48.1-26.1-92.7c-0.3,0.1-0.5,0.2-0.8,0.3
	c-69,24-93.8,71.8-96,76.3c20.8,16.2,46.8,25.8,75.1,25.8C160.2,265.5,176.4,262,191.1,255.8L191.1,255.8z M52.4,225
	c2.8-4.7,36.4-60.3,99.5-80.7c1.6-0.5,3.2-1,4.8-1.5c-3.1-6.9-6.4-13.9-9.9-20.7C85.6,140.4,26.3,139.7,21,139.5
	c0,1.2-0.1,2.5-0.1,3.7C20.9,174.7,32.8,203.3,52.4,225L52.4,225z M23.5,118.2c5.5,0.1,55.9,0.3,113.1-14.9
	c-20.3-36-42.1-66.3-45.4-70.7C57,48.8,31.4,80.3,23.5,118.2L23.5,118.2z M114.6,24.5C118,29,140.2,59.2,160.3,96
	c43.5-16.3,61.9-41,64.1-44.1c-21.6-19.1-50-30.8-81.1-30.8C133.4,21.1,123.8,22.2,114.6,24.5L114.6,24.5z M238,66
	c-2.6,3.5-23.1,29.7-68.3,48.2c2.8,5.8,5.6,11.7,8.1,17.7c0.9,2.1,1.8,4.2,2.6,6.3c40.7-5.1,81.2,3.1,85.2,3.9
	C265.4,113.3,255.1,86.8,238,66L238,66z"/>
</svg>
