<svg xmlns="http://www.w3.org/2000/svg" viewBox="0 0 100 100"><path fill="none" stroke="#FFF" stroke-width="2" stroke-linecap="round" stroke-linejoin="round" stroke-miterlimit="10" d="M50.1 22.7C34.6 22.7 22 35.3 22 50.8c0 12.3 8.1 23.1 19.2 26.8 1.3.3 1.8-.5 1.8-1.3v-4.7c-7.9 1.6-9.4-3.7-9.4-3.7-1.3-3.1-3.1-4.2-3.1-4.2-2.6-1.8.3-1.8.3-1.8 2.9.3 4.2 2.9 4.2 2.9 2.6 4.2 6.6 3.1 8.1 2.4.3-1.8 1-3.1 1.8-3.7-6.3-.9-12.9-3.3-12.9-14 0-3.1 1-5.5 2.9-7.6-.3-.8-1.3-3.7.3-7.3 0 0 2.4-.8 7.9 2.9 2.4-.5 4.7-1 7.1-1 2.4 0 4.7.3 7.1 1 5.2-3.7 7.6-2.9 7.6-2.9 1.6 3.9.5 6.8.3 7.3 1.8 2.1 2.9 4.5 2.9 7.6 0 10.8-6.6 13.1-12.9 13.9 1 .8 1.8 2.6 1.8 5.2v7.6s.5 1.6 1.8 1.3C70.1 73.9 78 63.4 78 50.8c.2-15.5-12.4-28.1-27.9-28.1z"/></svg>