<?xml version="1.0" encoding="utf-8"?>
<!-- Generator: Adobe Illustrator 20.1.0, SVG Export Plug-In . SVG Version: 6.00 Build 0)  -->
<svg version="1.1" id="Layer_1" xmlns="http://www.w3.org/2000/svg" xmlns:xlink="http://www.w3.org/1999/xlink" x="0px" y="0px"
	 viewBox="0 0 35 35" style="enable-background:new 0 0 35 35;" xml:space="preserve">
<style type="text/css">
	.st0{fill:#FFFFFF;}
</style>
<g>
	<g id="Znxkvv.tif">
		<g>
			<path class="st0" d="M26.8,35c-6.2,0-12.4,0-18.6,0C1.9,33.1-0.3,28.6,0,22.4c0.2-4,0-7.9,0.1-11.9c0.2-6.4,4-10.2,10.4-10.4
				c4-0.1,7.9,0.1,11.9-0.1C28.6-0.3,33.1,1.9,35,8.2c0,6.2,0,12.4,0,18.6C33.8,31.1,31.1,33.8,26.8,35z M3.5,17.1
				C3.4,17.1,3.4,17.1,3.5,17.1C3.4,19,3.4,21,3.4,22.9c0,0.7,0,1.4,0.1,2c0.2,4.2,2.4,6.5,6.5,6.6c5,0.1,10.1,0.1,15.1,0
				c4-0.1,6.3-2.4,6.4-6.4c0.1-5.1,0.1-10.3,0-15.4c-0.1-3.8-2.4-6.2-6.2-6.3c-5.2-0.1-10.5-0.1-15.7,0C5.9,3.6,3.7,6,3.5,9.8
				C3.4,12.3,3.5,14.7,3.5,17.1z"/>
			<path class="st0" d="M26.8,35c4.2-1.2,6.9-3.9,8.2-8.2c0,2.7,0,5.4,0,8.2C32.3,35,29.6,35,26.8,35z"/>
			<path class="st0" d="M17.4,26.9c-5.3-0.1-9.3-4.2-9.2-9.6c0.1-5.3,4.3-9.2,9.6-9.1c5.1,0.1,9.1,4.2,9,9.4
				C26.8,22.9,22.7,26.9,17.4,26.9z M17.6,23.6c3.5,0,6-2.6,6-6.1c0-3.5-2.6-6-6.1-6c-3.5,0-6,2.6-6,6.1
				C11.5,21,14.1,23.6,17.6,23.6z"/>
		</g>
	</g>
	<circle class="st0" cx="26.8" cy="8.3" r="1.9"/>
</g>
</svg>
