<?xml version="1.0" encoding="utf-8"?>
<!-- Generator: Adobe Illustrator 20.1.0, SVG Export Plug-In . SVG Version: 6.00 Build 0)  -->
<svg version="1.1" id="Layer_1" xmlns="http://www.w3.org/2000/svg" xmlns:xlink="http://www.w3.org/1999/xlink" x="0px" y="0px"
	 viewBox="0 0 262 280" style="enable-background:new 0 0 262 280;" xml:space="preserve">
<style type="text/css">
	.st0{fill:#6B83A6;}
	.st1{fill:#FFFFFF;}
</style>
<rect class="st0" width="262" height="280"/>
<g>
	<path class="st1" d="M81.9,127h1.7v12.5h6.5v1.6h-8.3V127z"/>
	<path class="st1" d="M96.5,130.6c3.1,0,4.9,2.4,4.9,5.4v0.4h-8.2c0.1,1.9,1.5,3.5,3.7,3.5c1.2,0,2.3-0.5,3.1-1.3l0.8,1
		c-1,1-2.4,1.6-4,1.6c-3,0-5.2-2.2-5.2-5.3C91.5,133,93.6,130.6,96.5,130.6z M93.2,135.3h6.7c0-1.5-1-3.4-3.3-3.4
		C94.3,131.9,93.3,133.7,93.2,135.3z"/>
	<path class="st1" d="M110.3,139.8c-0.8,0.9-2,1.4-3.4,1.4c-1.7,0-3.5-1.2-3.5-3.4c0-2.3,1.8-3.3,3.5-3.3c1.4,0,2.5,0.4,3.4,1.4
		v-1.8c0-1.4-1.1-2.1-2.6-2.1c-1.2,0-2.2,0.4-3.1,1.4l-0.7-1.1c1.1-1.1,2.4-1.7,4.1-1.7c2.1,0,3.9,1,3.9,3.4v7h-1.6V139.8z
		 M110.3,136.9c-0.6-0.8-1.7-1.3-2.8-1.3c-1.5,0-2.5,0.9-2.5,2.2c0,1.3,1,2.2,2.5,2.2c1.1,0,2.2-0.4,2.8-1.3V136.9z"/>
	<path class="st1" d="M115,130.9h1.6v1.6c0.8-1.1,2-1.8,3.4-1.8v1.6c-0.2,0-0.4-0.1-0.6-0.1c-1,0-2.3,0.8-2.8,1.6v7.2H115V130.9z"/>
	<path class="st1" d="M128.8,134.4c0-1.8-0.9-2.4-2.3-2.4c-1.2,0-2.4,0.8-3,1.6v7.4h-1.6v-10.1h1.6v1.5c0.7-0.8,2.1-1.7,3.6-1.7
		c2.1,0,3.2,1.1,3.2,3.3v7.1h-1.6V134.4z"/>
	<path class="st1" d="M150.9,129.3l-4.8,11.7h-0.7l-4.7-11.7V141H139v-14h2.5l4.3,10.7l4.4-10.7h2.5v14h-1.7V129.3z"/>
	<path class="st1" d="M155.3,135.9c0-2.9,1.9-5.3,5-5.3s5,2.4,5,5.3s-1.9,5.3-5,5.3S155.3,138.9,155.3,135.9z M163.7,135.9
		c0-2.1-1.2-3.9-3.4-3.9s-3.4,1.8-3.4,3.9c0,2.1,1.2,3.9,3.4,3.9S163.7,138,163.7,135.9z"/>
	<path class="st1" d="M167.9,130.9h1.6v1.6c0.8-1.1,2-1.8,3.4-1.8v1.6c-0.2,0-0.4-0.1-0.6-0.1c-1,0-2.3,0.8-2.8,1.6v7.2h-1.6V130.9z
		"/>
	<path class="st1" d="M179.2,130.6c3.1,0,4.9,2.4,4.9,5.4v0.4h-8.2c0.1,1.9,1.5,3.5,3.7,3.5c1.2,0,2.3-0.5,3.1-1.3l0.8,1
		c-1,1-2.4,1.6-4,1.6c-3,0-5.2-2.2-5.2-5.3C174.2,133,176.3,130.6,179.2,130.6z M175.9,135.3h6.7c0-1.5-1-3.4-3.3-3.4
		C177.1,131.9,176,133.7,175.9,135.3z"/>
</g>
</svg>
