<svg xmlns="http://www.w3.org/2000/svg" viewBox="0 0 100 100"><g fill="none" stroke="#FFF" stroke-width="2" stroke-linecap="round" stroke-linejoin="round" stroke-miterlimit="10"><path d="M73.8 22.4H26.5c-2.4 0-4.2 1.8-4.2 3.9v47.5c0 2.1 1.8 3.9 4.2 3.9h47.2c2.4 0 4.2-1.8 4.2-3.9V26.4c.1-2.1-2-4-4.1-4z"/><path d="M34.6 30.1c2.6 0 4.7 2.1 4.7 4.7s-2.1 4.7-4.7 4.7-4.7-2.1-4.7-4.7 2.1-4.7 4.7-4.7m-4.2 13.1h8.1v26.5h-8.1V43.2zm13.4 0h7.9v3.7c1-2.1 3.7-4.2 7.9-4.2 8.4 0 10 5.5 10 12.6v14.4h-8.1V56.8c0-3.1 0-7.1-4.2-7.1s-5 3.4-5 6.8v13.1h-8.1V43.2h-.4z"/></g></svg>