<?xml version="1.0" encoding="utf-8"?>
<!-- Generator: Adobe Illustrator 19.2.1, SVG Export Plug-In . SVG Version: 6.00 Build 0)  -->
<svg version="1.1" id="Layer_1" xmlns="http://www.w3.org/2000/svg" xmlns:xlink="http://www.w3.org/1999/xlink" x="0px" y="0px"
	 viewBox="0 0 100 100" style="enable-background:new 0 0 100 100;" xml:space="preserve">
<style type="text/css">
	.st0{fill:#AAAABF;}
</style>
<path class="st0" d="M93,0H7.4C3,0-0.2,3.3-0.2,7.1v86c0,3.8,3.3,7.1,7.6,7.1h85.4c4.3,0,7.6-3.3,7.6-7.1V7.2C100.6,3.4,96.8,0,93,0
	z M31.5,84.2H17.9V39.5h13.7V84.2z M24.9,33.2c-4.4,0-7.9-3.5-7.9-7.9s3.5-7.9,7.9-7.9c4.4,0,7.9,3.5,7.9,7.9S29.3,33.2,24.9,33.2z
	 M84,84.2H70.3V62.4c0-5.2,0-12-7.1-12c-7.1,0-8.4,5.7-8.4,11.5V84H41.1V39.5h12.7v6.2c1.7-3.5,6.2-7.1,13.3-7.1
	c14.2,0,16.9,9.3,16.9,21.3V84.2z"/>
</svg>
