<?xml version="1.0" encoding="utf-8"?>
<!-- Generator: Adobe Illustrator 20.1.0, SVG Export Plug-In . SVG Version: 6.00 Build 0)  -->
<svg version="1.1" id="Layer_1" xmlns="http://www.w3.org/2000/svg" xmlns:xlink="http://www.w3.org/1999/xlink" x="0px" y="0px"
	 viewBox="0 0 1316 738" style="enable-background:new 0 0 1316 738;" xml:space="preserve">
<style type="text/css">
	.st0{opacity:0.46;fill:#6B83A6;}
	.st1{fill:#FFFFFF;}
</style>
<image style="overflow:visible;" width="2632" height="1476" xlink:href="../../../Desktop/d04cdd98e7c5e0141d041d58b6b1937c.png"  transform="matrix(0.5 0 0 0.5 0 0)">
</image>
<rect y="-5.4" class="st0" width="1316" height="743.4"/>
<g>
	<circle class="st0" cx="658" cy="369" r="80.1"/>
	<g>
		<polygon class="st1" points="624.3,407.4 705.4,369 624.3,330.6 		"/>
	</g>
</g>
<g>
	<path class="st1" d="M474.8,487.5c0-6.4,2.4-13.2,6.3-17.6l3.2,2.4c-2.7,4.9-4,9.3-4,15.2c0,6,1.4,10.4,4,15.2l-3.2,2.5
		C477.3,500.8,474.8,493.9,474.8,487.5z"/>
	<path class="st1" d="M487.6,504.5v-26.6h5.1v2.4c1.5-1.9,3.6-2.9,5.9-2.9c4.9,0,8.5,3.7,8.5,10.1s-3.6,10.1-8.5,10.1
		c-2.3,0-4.4-1-5.9-3v9.8H487.6z M497,482c-1.6,0-3.5,1-4.3,2.2v6.8c0.8,1.2,2.7,2.2,4.3,2.2c2.9,0,4.9-2.3,4.9-5.6
		C501.8,484.2,499.9,482,497,482z"/>
	<path class="st1" d="M522.5,495.2c-1.3,1.6-3.6,2.5-6.1,2.5c-3.1,0-6.7-2.1-6.7-6.4c0-4.5,3.6-6.1,6.7-6.1c2.6,0,4.8,0.8,6.1,2.4
		v-2.7c0-2-1.7-3.2-4.2-3.2c-2.1,0-4,0.8-5.6,2.3l-1.9-3.4c2.4-2.1,5.4-3,8.4-3c4.4,0,8.4,1.8,8.4,7.3v12.4h-5.1V495.2z
		 M522.5,490.2c-0.8-1.1-2.4-1.7-4.1-1.7c-2,0-3.6,1-3.6,2.9c0,1.8,1.6,2.8,3.6,2.8c1.6,0,3.2-0.6,4.1-1.7V490.2z"/>
	<path class="st1" d="M533.1,491.1c1.4,1.3,4.3,2.6,6.7,2.6c2.2,0,3.2-0.8,3.2-2c0-1.4-1.7-1.8-3.9-2.3c-3.3-0.6-7.6-1.4-7.6-6
		c0-3.2,2.8-6.1,7.9-6.1c3.3,0,5.9,1.1,7.8,2.6l-2,3.5c-1.2-1.2-3.4-2.2-5.7-2.2c-1.8,0-3,0.7-3,1.8c0,1.2,1.5,1.6,3.7,2.1
		c3.3,0.6,7.7,1.5,7.7,6.3c0,3.5-3,6.2-8.3,6.2c-3.4,0-6.6-1.1-8.6-3L533.1,491.1z"/>
	<path class="st1" d="M552.1,491.1c1.4,1.3,4.3,2.6,6.7,2.6c2.2,0,3.2-0.8,3.2-2c0-1.4-1.7-1.8-3.9-2.3c-3.3-0.6-7.6-1.4-7.6-6
		c0-3.2,2.8-6.1,7.9-6.1c3.3,0,5.9,1.1,7.8,2.6l-2,3.5c-1.2-1.2-3.4-2.2-5.7-2.2c-1.8,0-3,0.7-3,1.8c0,1.2,1.5,1.6,3.7,2.1
		c3.3,0.6,7.7,1.5,7.7,6.3c0,3.5-3,6.2-8.3,6.2c-3.4,0-6.6-1.1-8.6-3L552.1,491.1z"/>
	<path class="st1" d="M583.5,484.1l-4.1,13.1H574l-5.9-19.3h5.3l3.6,13l4.2-13h4.5l4.2,13l3.6-13h5.3l-5.9,19.3h-5.4L583.5,484.1z"
		/>
	<path class="st1" d="M600.1,487.5c0-5.5,3.8-10.1,10.2-10.1c6.4,0,10.2,4.6,10.2,10.1c0,5.5-3.8,10.1-10.2,10.1
		C603.9,497.7,600.1,493.1,600.1,487.5z M615.2,487.5c0-3-1.8-5.6-4.9-5.6c-3.2,0-4.9,2.6-4.9,5.6c0,3,1.8,5.6,4.9,5.6
		C613.4,493.2,615.2,490.6,615.2,487.5z"/>
	<path class="st1" d="M624.2,477.9h5.1v2.6c1.4-1.7,3.7-3.1,6.1-3.1v4.9c-0.4-0.1-0.8-0.2-1.4-0.2c-1.7,0-3.9,1-4.7,2.2v12.7h-5.1
		V477.9z"/>
	<path class="st1" d="M651.8,494.7c-1.5,1.9-3.6,3-5.9,3c-4.9,0-8.5-3.7-8.5-10.1c0-6.3,3.6-10.1,8.5-10.1c2.3,0,4.4,1,5.9,3v-9.8
		h5.1v26.6h-5.1V494.7z M651.8,484.2c-0.8-1.3-2.7-2.2-4.4-2.2c-2.9,0-4.9,2.3-4.9,5.6c0,3.3,2,5.6,4.9,5.6c1.7,0,3.5-0.9,4.4-2.2
		V484.2z"/>
	<path class="st1" d="M672.1,504.5v-26.6h5.1v2.4c1.5-1.9,3.6-2.9,5.9-2.9c4.9,0,8.5,3.7,8.5,10.1s-3.6,10.1-8.5,10.1
		c-2.3,0-4.4-1-5.9-3v9.8H672.1z M681.6,482c-1.6,0-3.5,1-4.3,2.2v6.8c0.8,1.2,2.7,2.2,4.3,2.2c2.9,0,4.9-2.3,4.9-5.6
		C686.4,484.2,684.5,482,681.6,482z"/>
	<path class="st1" d="M695.5,477.9h5.1v2.6c1.4-1.7,3.8-3.1,6.1-3.1v4.9c-0.4-0.1-0.8-0.2-1.4-0.2c-1.7,0-3.9,1-4.7,2.2v12.7h-5.1
		V477.9z"/>
	<path class="st1" d="M708.6,487.5c0-5.5,3.8-10.1,10.2-10.1c6.4,0,10.2,4.6,10.2,10.1c0,5.5-3.8,10.1-10.2,10.1
		C712.4,497.7,708.6,493.1,708.6,487.5z M723.7,487.5c0-3-1.8-5.6-4.9-5.6s-4.9,2.6-4.9,5.6c0,3,1.8,5.6,4.9,5.6
		S723.7,490.6,723.7,487.5z"/>
	<path class="st1" d="M733.7,492.4v-10.1h-3.2v-4.4h3.2v-5.3h5.1v5.3h3.9v4.4h-3.9v8.7c0,1.2,0.6,2.1,1.8,2.1c0.8,0,1.5-0.3,1.8-0.6
		l1.1,3.8c-0.8,0.7-2.1,1.2-4.2,1.2C735.7,497.7,733.7,495.8,733.7,492.4z"/>
	<path class="st1" d="M755,477.5c5.7,0,9.7,4.3,9.7,10.6v1.1h-14.3c0.3,2.4,2.3,4.5,5.5,4.5c1.8,0,3.9-0.7,5.1-1.9l2.2,3.3
		c-1.9,1.8-4.9,2.7-7.9,2.7c-5.9,0-10.3-3.9-10.3-10.1C745,482,749.1,477.5,755,477.5z M750.2,485.8h9.5c-0.1-1.8-1.4-4.3-4.7-4.3
		C751.8,481.5,750.5,483.8,750.2,485.8z"/>
	<path class="st1" d="M777.3,477.5c3.9,0,6.3,1.7,7.6,3.5l-3.3,3.1c-0.9-1.4-2.3-2.1-4.1-2.1c-3.1,0-5.2,2.2-5.2,5.6
		s2.2,5.6,5.2,5.6c1.8,0,3.2-0.8,4.1-2.1l3.3,3.1c-1.3,1.8-3.7,3.5-7.6,3.5c-5.9,0-10.2-4.2-10.2-10.1
		C767,481.6,771.3,477.5,777.3,477.5z"/>
	<path class="st1" d="M789.2,492.4v-10.1H786v-4.4h3.2v-5.3h5.1v5.3h3.9v4.4h-3.9v8.7c0,1.2,0.6,2.1,1.8,2.1c0.8,0,1.5-0.3,1.8-0.6
		l1.1,3.8c-0.8,0.7-2.1,1.2-4.2,1.2C791.1,497.7,789.2,495.8,789.2,492.4z"/>
	<path class="st1" d="M810.4,477.5c5.7,0,9.7,4.3,9.7,10.6v1.1h-14.3c0.3,2.4,2.3,4.5,5.5,4.5c1.8,0,3.9-0.7,5.1-1.9l2.2,3.3
		c-1.9,1.8-4.9,2.7-7.9,2.7c-5.9,0-10.3-3.9-10.3-10.1C800.4,482,804.5,477.5,810.4,477.5z M805.7,485.8h9.5
		c-0.1-1.8-1.4-4.3-4.7-4.3C807.3,481.5,805.9,483.8,805.7,485.8z"/>
	<path class="st1" d="M837,494.7c-1.5,1.9-3.6,3-5.9,3c-4.9,0-8.5-3.7-8.5-10.1c0-6.3,3.6-10.1,8.5-10.1c2.3,0,4.4,1,5.9,3v-9.8h5.1
		v26.6H837V494.7z M837,484.2c-0.8-1.3-2.7-2.2-4.4-2.2c-2.9,0-4.9,2.3-4.9,5.6c0,3.3,2,5.6,4.9,5.6c1.7,0,3.5-0.9,4.4-2.2V484.2z"
		/>
	<path class="st1" d="M845.3,472.3l3.2-2.4c3.9,4.4,6.4,11.2,6.4,17.6s-2.5,13.3-6.4,17.6l-3.2-2.5c2.8-4.8,4.1-9.2,4.1-15.2
		C849.3,481.5,848,477.1,845.3,472.3z"/>
</g>
</svg>
