<svg xmlns="http://www.w3.org/2000/svg" viewBox="0 0 100 100"><g fill="none" stroke="#FFF" stroke-width="2" stroke-linecap="round" stroke-linejoin="round" stroke-miterlimit="10"><path d="M58.5 59.2c-.5.3-1.8.5-2.6.5-2.6 0-3.1-1.8-3.1-3.4V45.8h6.8v-5.2h-6.8v-8.4h-5s-.3 0-.3.3c-.3 2.6-1.6 7.3-6.6 9.2v4.5h3.4v11c0 3.7 2.9 9.2 10.2 8.9 2.4 0 5.2-1 5.8-2.1l-1.8-4.8z"/><path d="M70.9 77.3H29.4c-3.4 0-6.3-2.9-6.3-6.3V29.3c0-3.4 2.9-6.3 6.3-6.3h41.5c3.4 0 6.3 2.9 6.3 6.3v41.5c0 3.6-2.9 6.5-6.3 6.5z"/></g></svg>