<svg xmlns="http://www.w3.org/2000/svg" viewBox="0 0 100 100"><path fill="none" stroke="#FFF" stroke-width="2" stroke-linecap="round" stroke-linejoin="round" stroke-miterlimit="10" d="M46.4 77.6c-7.9 0-15.2-2.4-21.3-6.3 1 0 2.1.3 3.4.3 6.6 0 12.6-2.1 17.3-6-6 0-11.3-4.2-12.9-9.7.8.3 1.8.3 2.6.3 1.3 0 2.6-.3 3.7-.5-6.6-1-11.3-6.8-11.3-13.6v-.3c1.8 1 3.9 1.6 6.3 1.8-3.9-2.4-6.3-6.6-6.3-11.5 0-2.6.8-5 1.8-7.1 6.8 8.4 17.1 13.9 28.6 14.4-.3-1-.3-2.1-.3-3.1 0-7.6 6.3-13.9 13.9-13.9 3.9 0 7.6 1.6 10.2 4.5 3.1-.5 6-1.6 8.7-3.1-1 3.1-3.1 6-6 7.6 2.9-.3 5.5-1 7.9-2.1-1.8 2.9-4.2 5.2-6.8 7.1v1.8c.1 18.1-13.8 39.4-39.5 39.4"/></svg>