<?xml version="1.0" encoding="utf-8"?>
<!-- Generator: Adobe Illustrator 19.2.1, SVG Export Plug-In . SVG Version: 6.00 Build 0)  -->
<svg version="1.1" id="Layer_1" xmlns="http://www.w3.org/2000/svg" xmlns:xlink="http://www.w3.org/1999/xlink" x="0px" y="0px"
	 viewBox="0 0 98.1 80.1" style="enable-background:new 0 0 98.1 80.1;" xml:space="preserve">
<style type="text/css">
	.st0{fill:#AAAABF;}
</style>
<path class="st0" d="M30.9,80.1C19.4,80.1,8.9,76.6,0,71c1.5,0,3,0.4,4.9,0.4c9.6,0,18.3-3,25.1-8.7c-8.7,0-16.4-6.1-18.7-14.1
	c1.2,0.4,2.6,0.4,3.8,0.4c1.9,0,3.8-0.4,5.4-0.7c-9.6-1.5-16.4-9.9-16.4-19.7v-0.4c2.6,1.5,5.7,2.3,9.1,2.6
	c-5.7-3.5-9.1-9.6-9.1-16.7c0-3.8,1.2-7.3,2.6-10.3C16.5,16,31.5,23.9,48.2,24.7c-0.4-1.5-0.4-3-0.4-4.5C47.7,9.1,56.9,0,67.9,0
	c5.7,0,11,2.3,14.8,6.5c4.5-0.7,8.7-2.3,12.6-4.5c-1.5,4.5-4.5,8.7-8.7,11c4.2-0.4,8-1.5,11.5-3c-2.6,4.2-6.1,7.5-9.9,10.3v2.6
	C88.4,49.2,68.2,80.1,30.9,80.1"/>
</svg>
